<?xml version="1.0" encoding="UTF-8" standalone="no"?>
<svg
   width="64"
   height="65"
   viewBox="0 0 64 65"
   fill="none"
   version="1.1"
   id="svg12"
   sodipodi:docname="logo-64 (copy).svg"
   inkscape:version="1.2.2 (b0a8486541, 2022-12-01)"
   xmlns:inkscape="http://www.inkscape.org/namespaces/inkscape"
   xmlns:sodipodi="http://sodipodi.sourceforge.net/DTD/sodipodi-0.dtd"
   xmlns="http://www.w3.org/2000/svg"
   xmlns:svg="http://www.w3.org/2000/svg">
  <defs
     id="defs16" />
  <sodipodi:namedview
     id="namedview14"
     pagecolor="#ffffff"
     bordercolor="#000000"
     borderopacity="0.25"
     inkscape:showpageshadow="2"
     inkscape:pageopacity="0.0"
     inkscape:pagecheckerboard="0"
     inkscape:deskcolor="#d1d1d1"
     showgrid="false"
     inkscape:zoom="8.1"
     inkscape:cx="22.469136"
     inkscape:cy="40.308642"
     inkscape:window-width="2088"
     inkscape:window-height="1123"
     inkscape:window-x="2026"
     inkscape:window-y="86"
     inkscape:window-maximized="0"
     inkscape:current-layer="svg12" />
  <path
     id="path2"
     style="fill:#000000;fill-opacity:1"
     d="M 8 0.5 C 4.000004 0.5 -3.999996e-06 4.500004 0 8.5 L 0 56.5 C 0 60.499996 4.000004 64.5 8 64.5 L 56 64.5 C 59.999996 64.5 64 60.499996 64 56.5 L 64 8.5 C 64 4.500004 59.999996 0.5 56 0.5 L 8 0.5 z M 8 4.5 L 56 4.5 L 60 8.5 L 60 56.5 L 56 60.5 L 8 60.5 L 4 56.5 L 4 8.5 L 8 4.5 z M 22.205078 9.4179688 C 16.540284 9.4179688 11.949219 14.010987 11.949219 19.675781 C 11.949219 25.340576 16.540284 29.931641 22.205078 29.931641 C 27.869872 29.931641 32.462891 25.340576 32.462891 19.675781 C 32.462891 14.010987 27.869872 9.4179687 22.205078 9.4179688 z M 42.740234 35.132812 C 37.10124 35.132812 32.529297 39.702703 32.529297 45.341797 C 32.529297 50.980791 37.10124 55.552734 42.740234 55.552734 C 48.379229 55.552734 52.949219 50.980791 52.949219 45.341797 C 52.949219 39.702703 48.379229 35.132813 42.740234 35.132812 z " />
  <path
     id="path4"
     style="fill:#000000;fill-opacity:0.2"
     d="M 21.228516 12.349609 C 17.16972 12.349609 13.902344 15.616885 13.902344 19.675781 C 13.902344 23.734577 17.16972 27.001953 21.228516 27.001953 L 44.673828 27.001953 C 48.732624 27.001953 52 23.734577 52 19.675781 C 52 15.616885 48.732624 12.349609 44.673828 12.349609 L 21.228516 12.349609 z M 20.373047 38.048828 C 16.332651 38.048828 13.080078 41.301301 13.080078 45.341797 C 13.080078 49.382193 16.332651 52.634766 20.373047 52.634766 L 43.710938 52.634766 C 47.751333 52.634766 51.005859 49.382193 51.005859 45.341797 C 51.005859 41.301301 47.751333 38.048828 43.710938 38.048828 L 20.373047 38.048828 z " />
</svg>
