<?xml version="1.0" encoding="UTF-8" standalone="no"?>
<svg
   class="ionicon"
   viewBox="0 0 512 512"
   version="1.1"
   id="svg6"
   sodipodi:docname="logo-github.svg"
   inkscape:version="1.2.2 (b0a8486541, 2022-12-01)"
   xmlns:inkscape="http://www.inkscape.org/namespaces/inkscape"
   xmlns:sodipodi="http://sodipodi.sourceforge.net/DTD/sodipodi-0.dtd"
   xmlns="http://www.w3.org/2000/svg"
   xmlns:svg="http://www.w3.org/2000/svg">
  <defs
     id="defs10" />
  <sodipodi:namedview
     id="namedview8"
     pagecolor="#ffffff"
     bordercolor="#000000"
     borderopacity="0.25"
     inkscape:showpageshadow="2"
     inkscape:pageopacity="0.0"
     inkscape:pagecheckerboard="0"
     inkscape:deskcolor="#d1d1d1"
     showgrid="false"
     inkscape:zoom="2.0566406"
     inkscape:cx="232.66097"
     inkscape:cy="256.24312"
     inkscape:window-width="1920"
     inkscape:window-height="1164"
     inkscape:window-x="0"
     inkscape:window-y="0"
     inkscape:window-maximized="1"
     inkscape:current-layer="svg6" />
  <title
     id="title2">Logo Github</title>
  <path
     d="m 256.55277,31.861823 c -123.7,0 -224.000004,102.899997 -224.000004,229.699997 0,101.5 64.2,187.5 153.200004,217.9 a 17.56,17.56 0 0 0 3.8,0.4 c 8.3,0 11.5,-6.1 11.5,-11.4 0,-5.5 -0.2,-19.9 -0.3,-39.1 a 102.4,102.4 0 0 1 -22.6,2.7 c -43.1,0 -52.9,-33.5 -52.9,-33.5 -10.2,-26.5 -24.9,-33.6 -24.9,-33.6 -19.500004,-13.7 -0.1,-14.1 1.4,-14.1 h 0.1 c 22.5,2 34.3,23.8 34.3,23.8 11.2,19.6 26.2,25.1 39.6,25.1 a 63,63 0 0 0 25.6,-6 c 2,-14.8 7.8,-24.9 14.2,-30.7 -49.7,-5.8 -102,-25.5 -102,-113.5 0,-25.1 8.7,-45.6 23,-61.6 -2.3,-5.8 -10,-29.2 2.2,-60.8 a 18.64,18.64 0 0 1 5,-0.5 c 8.1,0 26.4,3.1 56.6,24.1 a 208.21,208.21 0 0 1 112.2,0 c 30.2,-21 48.5,-24.1 56.6,-24.1 a 18.64,18.64 0 0 1 5,0.5 c 12.2,31.6 4.5,55 2.2,60.8 14.3,16.1 23,36.6 23,61.6 0,88.2 -52.4,107.6 -102.3,113.3 8,7.1 15.2,21.1 15.2,42.5 0,30.7 -0.3,55.5 -0.3,63 0,5.4 3.1,11.5 11.4,11.5 a 19.35,19.35 0 0 0 4,-0.4 c 89.1,-30.4 153.2,-116.5 153.2,-217.9 0,-126.8 -100.3,-229.699997 -224,-229.699997 z"
     id="path4"
     style="fill:#000000;fill-opacity:1" />
</svg>
