<?xml version="1.0" encoding="UTF-8" standalone="no"?>
<svg
   class="ionicon"
   viewBox="0 0 512 512"
   version="1.1"
   id="svg6"
   sodipodi:docname="logo-linkedin.svg"
   inkscape:version="1.2.2 (b0a8486541, 2022-12-01)"
   xmlns:inkscape="http://www.inkscape.org/namespaces/inkscape"
   xmlns:sodipodi="http://sodipodi.sourceforge.net/DTD/sodipodi-0.dtd"
   xmlns="http://www.w3.org/2000/svg"
   xmlns:svg="http://www.w3.org/2000/svg">
  <defs
     id="defs10" />
  <sodipodi:namedview
     id="namedview8"
     pagecolor="#ffffff"
     bordercolor="#000000"
     borderopacity="0.25"
     inkscape:showpageshadow="2"
     inkscape:pageopacity="0.0"
     inkscape:pagecheckerboard="0"
     inkscape:deskcolor="#d1d1d1"
     showgrid="false"
     inkscape:zoom="2.0566406"
     inkscape:cx="240.92688"
     inkscape:cy="256.24312"
     inkscape:window-width="1920"
     inkscape:window-height="1164"
     inkscape:window-x="0"
     inkscape:window-y="0"
     inkscape:window-maximized="1"
     inkscape:current-layer="svg6" />
  <title
     id="title2">Logo Linkedin</title>
  <path
     d="M444.17 32H70.28C49.85 32 32 46.7 32 66.89v374.72C32 461.91 49.85 480 70.28 480h373.78c20.54 0 35.94-18.21 35.94-38.39V66.89C480.12 46.7 464.6 32 444.17 32zm-273.3 373.43h-64.18V205.88h64.18zM141 175.54h-.46c-20.54 0-33.84-15.29-33.84-34.43 0-19.49 13.65-34.42 34.65-34.42s33.85 14.82 34.31 34.42c-.01 19.14-13.31 34.43-34.66 34.43zm264.43 229.89h-64.18V296.32c0-26.14-9.34-44-32.56-44-17.74 0-28.24 12-32.91 23.69-1.75 4.2-2.22 9.92-2.22 15.76v113.66h-64.18V205.88h64.18v27.77c9.34-13.3 23.93-32.44 57.88-32.44 42.13 0 74 27.77 74 87.64z"
     id="path4"
     style="fill:#000000;fill-opacity:1" />
</svg>
